<svg xmlns="http://www.w3.org/2000/svg" width="140" height="32" viewBox="0 0 140 32" fill="none">
  <g transform="translate(2, 4)">
    <path fill="#e4e4e7" d="M6.83 8a2.995 2.995 0 0 0 0-2H17a6 6 0 0 1 0 12h-1.17a2.997 2.997 0 0 0 0-2H17a4 4 0 0 0 0-8H6.83Z"/>
    <path fill="#e4e4e7" d="M13 20a3 3 0 1 0 0-6 3 3 0 0 0 0 6ZM4 10a3 3 0 1 0 0-6 3 3 0 0 0 0 6Z"/>
  </g>
  <text x="30" y="22" font-family="system-ui, -apple-system, sans-serif" font-size="18" font-weight="600" fill="#e4e4e7">BirdAI</text>
</svg>
